<svg version="1.1" id="Layer_1" xmlns="http://www.w3.org/2000/svg" xmlns:xlink="http://www.w3.org/1999/xlink" x="0px" y="0px"
	 width="100%" viewBox="0 0 960 960" enable-background="new 0 0 960 960" xml:space="preserve">

<path fill="#FEFEFE" opacity="1.000000" stroke="none" 
	d="
M247.000000,650.999207 
	C198.172073,650.999207 149.844147,651.000366 101.516212,650.997681 
	C95.223129,650.997375 95.024734,650.797668 95.002670,644.573242 
	C94.990852,641.240356 95.000732,637.907349 95.000862,634.574402 
	C95.001183,626.000732 95.016037,626.316833 103.358948,625.925110 
	C115.496819,625.355347 127.435638,623.506226 138.507233,618.012268 
	C149.998871,612.309814 156.272919,603.818604 156.144287,590.217041 
	C155.748718,548.392090 156.100586,506.560547 155.882187,464.733002 
	C155.852509,459.049194 157.427826,454.674927 161.037262,450.413025 
	C180.208191,427.776825 199.151688,404.948212 218.270325,382.267395 
	C240.959366,355.350922 263.784241,328.548920 286.479004,301.637177 
	C304.844727,279.858887 323.091095,257.979950 341.418518,236.169296 
	C348.950043,227.206421 356.589478,218.334167 364.108521,209.360947 
	C366.761108,206.195374 370.010315,204.961288 374.110321,204.962357 
	C545.424500,205.006683 716.738647,205.016876 888.052795,204.904587 
	C892.287903,204.901825 893.951233,206.600006 894.895508,210.285339 
	C904.561462,248.008118 914.315430,285.708313 923.985474,323.430023 
	C927.064026,335.439148 926.997986,335.501709 915.571594,339.586060 
	C911.124695,341.175598 906.065430,344.475555 902.250122,343.440186 
	C898.478455,342.416748 895.764709,337.031342 892.862915,333.342285 
	C875.600159,311.396393 857.728210,289.963867 837.277161,270.899841 
	C819.656982,254.474701 800.062500,241.005203 776.355225,234.788513 
	C770.083252,233.143829 763.555664,232.474106 756.155396,231.184143 
	C756.155396,235.152435 756.111206,238.061768 756.169922,240.969025 
	C756.213440,243.122696 756.493286,245.273651 756.493591,247.425842 
	C756.510376,355.247101 756.440002,463.068512 756.619263,570.889465 
	C756.636230,581.116333 757.833923,591.389221 759.166199,601.551208 
	C760.307556,610.256653 765.584961,616.565613 773.896851,619.238708 
	C781.750977,621.764648 789.912720,623.531433 798.064087,624.873657 
	C804.730896,625.971436 811.581665,625.952393 819.612183,626.517151 
	C819.612183,633.355530 819.778625,640.563904 819.440735,647.748596 
	C819.387268,648.885559 817.198486,650.220520 815.734741,650.895020 
	C814.634521,651.402039 813.114380,650.999084 811.781189,650.999084 
	C686.795166,650.999207 561.809082,650.968079 436.823273,651.109619 
	C431.661072,651.115479 428.799316,649.520752 426.252960,645.000488 
	C411.449005,618.721069 396.251160,592.664001 381.311066,566.460693 
	C359.239136,527.748840 337.288696,488.967743 315.243378,450.240692 
	C311.358398,443.415894 307.262421,436.711273 302.888062,429.315765 
	C289.186554,443.791077 275.880859,457.848236 261.538330,473.000763 
	C266.738007,473.000763 270.611450,472.982910 274.484650,473.004730 
	C281.162872,473.042419 281.998444,473.861969 281.998810,480.296875 
	C281.999908,500.454498 281.999176,520.612122 281.999176,542.000305 
	C287.693054,542.000305 293.238647,541.999634 298.784241,542.000488 
	C306.394226,542.001648 307.124878,542.094543 306.159637,549.727722 
	C304.682007,561.413269 308.031647,570.623047 316.898773,578.278564 
	C320.381012,581.285034 323.338074,585.005676 326.057190,588.747681 
	C327.524597,590.767151 328.739899,593.506470 328.778137,595.941284 
	C329.042175,612.756348 328.881500,629.577515 329.053619,646.394775 
	C329.101593,651.080811 325.907684,650.924316 322.985962,650.951538 
	C310.989563,651.063354 298.991547,650.999573 286.994110,650.999695 
	C273.829407,650.999878 260.664703,650.999390 247.000000,650.999207 
M612.300537,242.651962 
	C607.155151,245.307648 601.732849,247.539719 596.912048,250.691788 
	C575.134460,264.930969 557.500671,283.613220 541.178772,303.628204 
	C532.591675,314.158325 524.148926,324.806061 515.592041,335.361023 
	C513.557312,337.870941 511.271667,340.096832 507.553009,338.748138 
	C501.862610,336.684387 496.176880,334.607788 490.483185,332.553223 
	C487.444031,331.456573 486.705963,329.679749 487.506897,326.365814 
	C491.845734,308.413177 495.866333,290.383881 500.075806,272.399567 
	C502.664307,261.340515 505.394501,250.314651 508.408997,237.833374 
	C500.634064,240.658768 494.115662,242.819397 487.758301,245.379807 
	C473.164612,251.257370 462.303833,261.917938 451.753540,273.193604 
	C427.438629,299.180237 402.854004,324.916870 378.151367,350.535645 
	C374.927094,353.879486 374.861176,356.068390 377.173401,359.815765 
	C392.045990,383.919586 406.760254,408.122101 421.385895,432.376953 
	C442.018188,466.593140 462.505981,500.896423 483.100342,535.135498 
	C493.978027,553.220215 505.390839,570.999756 515.746216,589.376770 
	C524.649231,605.176392 537.097900,616.593567 554.192688,621.846191 
	C578.633545,629.355896 603.418701,627.710876 627.699524,620.688782 
	C638.538208,617.554199 645.639099,609.549988 648.095825,598.240845 
	C649.357361,592.433838 650.571045,586.496643 650.720398,580.590881 
	C651.124451,564.609375 650.971924,548.613159 650.996399,532.622681 
	C651.145569,435.043243 651.285706,337.463837 651.406189,239.884384 
	C651.409302,237.335098 651.153870,234.785492 650.987610,231.642715 
	C643.932739,233.224335 637.687561,234.357651 631.602417,236.062332 
	C625.299927,237.827927 619.152588,240.147614 612.300537,242.651962 
z"/>
<path fill="#FEFEFE" opacity="1.000000" stroke="none" 
	d="
M248.151581,190.999390 
	C264.798798,190.999405 280.962891,190.989410 297.126984,191.004044 
	C303.904480,191.010178 307.980988,194.992645 307.994049,201.638596 
	C308.017609,213.636642 308.024841,225.634827 307.992432,237.632843 
	C307.970032,245.924042 304.860962,248.999557 296.637848,248.999741 
	C281.306946,249.000092 265.974426,248.875366 250.646210,249.078415 
	C246.229843,249.136902 244.802155,247.573959 244.920990,243.253403 
	C245.133682,235.521790 244.828674,235.020355 237.131256,236.126862 
	C228.991180,237.297043 227.367905,237.156097 227.313202,246.435013 
	C227.207199,264.411957 227.351791,282.392365 227.047684,300.365479 
	C226.763641,317.153656 221.806122,332.841187 214.421661,347.755737 
	C202.779510,371.269653 186.650604,391.279846 166.454941,408.013885 
	C163.301437,410.626923 160.123459,413.219666 156.829254,415.648804 
	C155.642532,416.523865 154.080673,416.890228 151.954407,417.805298 
	C151.954407,359.476746 151.954407,302.069824 151.954407,244.355881 
	C140.908051,242.894501 131.321121,246.389557 122.126266,250.759308 
	C115.299644,254.003586 108.762764,257.978149 102.479454,262.197296 
	C99.018990,264.520905 95.777252,264.774841 92.891930,262.564972 
	C89.785393,260.185699 90.676651,256.580109 92.135307,253.415741 
	C98.437347,239.744324 107.243568,227.791458 118.119293,217.503662 
	C129.531586,206.708298 142.427338,198.074783 158.072006,194.641388 
	C164.820633,193.160324 171.733047,191.830139 178.605667,191.632004 
	C193.397461,191.205597 208.211914,191.608383 223.016617,191.551132 
	C226.328644,191.538315 228.129715,192.720169 229.077515,196.026794 
	C230.407394,200.666519 237.343430,203.764236 241.706100,201.745026 
	C242.770462,201.252396 243.686768,199.573914 243.902802,198.309402 
	C244.262314,196.205078 244.000793,193.994644 244.000793,191.362106 
	C245.226608,191.240860 246.447556,191.120087 248.151581,190.999390 
z"/>
<!-- <path fill="#FCFCFC" opacity="1.000000" stroke="none" 
	d="
M293.391632,750.777466 
	C289.527191,750.595947 288.686340,748.718933 288.743927,745.481567 
	C288.929413,735.050598 288.813019,724.614319 288.813019,714.180054 
	C288.292175,714.126587 287.771332,714.073120 287.250488,714.019592 
	C285.503296,722.131714 283.758850,730.244446 282.006256,738.355408 
	C281.694122,739.799866 281.284943,741.225952 281.028015,742.679504 
	C279.570007,750.927856 280.186554,750.661377 271.257294,750.660828 
	C267.554901,750.660583 265.645935,749.420654 264.880096,745.474365 
	C262.757538,734.537292 260.177734,723.689026 257.003571,712.833923 
	C257.003571,723.260925 257.080109,733.688965 256.935608,744.114014 
	C256.908447,746.074646 256.298401,749.545105 255.445251,749.712769 
	C251.823792,750.424316 248.002441,750.284790 244.274170,750.083801 
	C243.788498,750.057617 243.055267,747.871887 243.050491,746.683960 
	C242.973633,727.532166 243.014206,708.379944 242.978317,689.227966 
	C242.972504,686.125488 244.134003,684.720032 247.437103,684.940552 
	C251.084732,685.184021 254.804123,685.349609 258.414612,684.910522 
	C263.426300,684.301147 265.421112,686.218994 266.262299,691.138916 
	C268.295013,703.027893 270.870575,714.824036 273.506439,728.059387 
	C276.187317,714.724365 278.692871,702.783508 280.937897,690.793823 
	C281.662811,686.922485 282.779755,684.453125 287.469055,684.908081 
	C291.758789,685.324341 296.147430,684.730225 300.434296,685.160950 
	C301.723785,685.290466 303.836945,687.349243 303.850098,688.543213 
	C304.064850,708.026062 304.058075,727.512451 303.863586,746.995667 
	C303.852112,748.147034 302.010406,749.890442 300.699738,750.280273 
	C298.551422,750.919312 296.139801,750.672852 293.391632,750.777466 
z"/>
<path fill="#FBFBFB" opacity="1.000000" stroke="none" 
	d="
M442.803650,746.218750 
	C441.550934,745.349182 440.381714,744.875549 439.684265,744.018127 
	C437.316284,741.106934 435.537567,741.804810 432.725891,743.912109 
	C420.159302,753.330811 406.530182,754.580322 392.288147,747.942505 
	C390.225342,746.981140 388.205994,745.633423 386.602875,744.028564 
	C378.791595,736.209473 380.783325,726.946533 391.488068,721.114136 
	C393.912720,719.792969 396.537964,718.839966 399.439331,717.554260 
	C397.667572,715.561768 396.035034,714.003784 394.729828,712.207886 
	C390.078979,705.808716 391.230621,698.788208 397.600494,693.971863 
	C406.615692,687.155457 422.929016,686.314819 432.776733,692.171204 
	C436.717926,694.515015 439.279083,697.746338 439.278259,702.557312 
	C439.277405,707.391968 435.727509,709.252625 432.124023,711.095886 
	C429.823181,712.272827 427.572021,713.546814 424.862701,715.013184 
	C429.827637,718.319702 434.493774,721.068237 438.730560,724.368042 
	C441.842865,726.792114 443.963684,726.506653 446.040009,723.397156 
	C447.388336,721.377930 448.758301,719.373169 450.540497,716.738220 
	C448.261322,716.022034 446.519989,715.717529 445.034241,714.930542 
	C443.865906,714.311707 443.013000,713.097412 442.019958,712.147583 
	C443.059387,711.308899 444.080475,709.769958 445.141144,709.742126 
	C453.620758,709.520020 462.109161,709.508362 470.590668,709.663696 
	C471.559814,709.681458 473.153198,711.037231 473.274841,711.933105 
	C473.396088,712.826599 472.088501,714.748535 471.306976,714.803955 
	C460.792480,715.549988 455.904236,724.343628 448.333618,730.207214 
	C454.835999,735.545349 461.078888,740.531372 467.127136,745.743347 
	C468.472351,746.902527 469.132050,748.857239 470.107422,750.445618 
	C468.296173,750.965576 466.475708,751.958313 464.675293,751.923218 
	C457.090790,751.775574 449.523743,751.276978 442.803650,746.218750 
M412.235870,725.270142 
	C409.921967,723.804932 407.608032,722.339783 405.404755,720.944641 
	C398.735840,726.310425 398.203064,733.717834 403.887787,738.395508 
	C409.438812,742.963135 422.744293,743.987854 430.193787,736.988953 
	C424.343414,733.182495 418.588287,729.437988 412.235870,725.270142 
M412.255249,694.358215 
	C405.569580,697.884644 405.068512,702.670532 410.978394,707.179749 
	C412.406219,708.269043 413.937469,709.588196 415.595001,709.911987 
	C417.381256,710.261047 419.824310,710.190979 421.185944,709.205444 
	C424.894714,706.521179 425.263794,702.275085 423.702972,698.447998 
	C421.806152,693.797241 417.376923,693.710449 412.255249,694.358215 
z"/>
<path fill="#FBFBFB" opacity="1.000000" stroke="none" 
	d="
M707.043396,702.878052 
	C708.855957,707.854065 710.613220,712.440430 712.370483,717.026794 
	C712.578308,717.030701 712.786133,717.034668 712.993958,717.038574 
	C712.993958,708.559143 713.095703,700.077942 712.951111,691.600891 
	C712.878601,687.352661 713.530579,684.663086 718.900330,684.883362 
	C727.573059,685.238953 727.689209,684.937805 727.742188,691.597473 
	C727.882507,709.219727 727.851501,726.843689 728.054321,744.465027 
	C728.107910,749.122681 726.413452,750.952393 721.593445,750.950378 
	C711.595886,750.946167 711.635132,751.155396 708.213135,741.976501 
	C704.379639,731.693909 700.465515,721.441406 695.624390,711.208008 
	C695.488220,714.037903 695.210815,716.869324 695.242371,719.697327 
	C695.338989,728.343018 695.741699,736.989380 695.652527,745.631592 
	C695.600342,750.693420 694.198486,751.171570 686.300110,751.032410 
	C682.291565,750.961670 680.857788,749.522339 680.904480,745.357727 
	C681.110046,727.027649 681.075684,708.693359 680.927673,690.362244 
	C680.895874,686.423706 681.766724,684.719788 686.197449,684.900757 
	C703.460693,685.605774 699.159912,681.769958 705.399414,698.323914 
	C705.923462,699.714172 706.458374,701.100403 707.043396,702.878052 
z"/>
<path fill="#FDFDFD" opacity="1.000000" stroke="none" 
	d="
M544.590820,743.379395 
	C539.240540,749.804382 531.970459,750.210999 524.893005,750.682495 
	C518.601746,751.101624 512.268616,750.901550 505.953796,750.954468 
	C502.569031,750.982849 500.898743,749.689575 500.929382,745.889526 
	C501.079926,727.226807 501.042389,708.561951 500.957611,689.898376 
	C500.942017,686.463989 501.750580,684.703186 505.718018,684.925354 
	C514.671448,685.426697 523.665344,685.274963 532.606506,685.903748 
	C539.101013,686.360474 543.885925,689.732483 545.391907,696.472839 
	C546.973572,703.552551 546.315613,710.059265 539.772339,714.696106 
	C539.510376,714.881836 539.343018,715.201233 539.132568,715.459106 
	C547.963867,721.637146 550.188782,732.425415 544.590820,743.379395 
M528.371338,739.127747 
	C531.065796,736.760559 532.507996,728.516357 530.442261,725.065430 
	C527.181641,719.618347 521.995422,722.777344 517.512329,722.025574 
	C517.512329,728.287170 517.512329,733.984375 517.512329,739.764587 
	C521.196350,739.764587 524.484985,739.764587 528.371338,739.127747 
M517.130310,705.375061 
	C517.530762,707.168579 517.338074,709.888977 518.436462,710.591797 
	C522.713562,713.329041 529.462524,709.416138 529.685059,704.430786 
	C530.052551,696.197083 525.514465,693.310425 517.130432,696.599854 
	C517.130432,699.174377 517.130432,701.809143 517.130310,705.375061 
z"/>
<path fill="#FDFDFD" opacity="1.000000" stroke="none" 
	d="
M151.170319,728.141846 
	C151.189056,734.448669 151.408859,740.284424 151.092377,746.090881 
	C151.007797,747.642639 149.484634,750.179749 148.274994,750.405457 
	C144.743851,751.064514 141.001068,751.096863 137.421906,750.680786 
	C136.352921,750.556519 134.748779,748.149109 134.745071,746.784058 
	C134.692139,727.345093 134.908737,707.905518 134.955383,688.465881 
	C134.962143,685.650635 136.003891,684.446777 138.781540,684.752991 
	C138.946411,684.771240 139.114197,684.767029 139.280624,684.766724 
	C151.169891,684.746521 151.169952,684.746460 151.170517,696.855530 
	C151.170731,701.312073 151.170563,705.768555 151.170563,710.635376 
	C155.645721,710.635376 159.884766,710.635376 164.997955,710.635376 
	C164.997955,704.428650 164.994049,698.023743 164.999039,691.618896 
	C165.004181,685.002991 165.008224,684.963989 171.659958,685.007385 
	C182.263977,685.076599 180.959839,683.694641 180.988739,694.244507 
	C181.035248,711.225586 180.847351,728.209351 181.108261,745.186584 
	C181.174683,749.508728 179.364197,750.618774 175.652557,750.854492 
	C164.994232,751.531372 164.997971,751.590210 164.997971,741.150452 
	C164.997971,734.997375 164.997971,728.844299 164.997971,722.317261 
	C160.521286,722.317261 156.143539,722.317261 151.170273,722.317261 
	C151.170273,724.113892 151.170273,725.886841 151.170319,728.141846 
z"/>
<path fill="#FBFBFB" opacity="1.000000" stroke="none" 
	d="
M232.411987,692.825806 
	C233.141266,694.862061 234.019058,696.597778 234.048889,698.347961 
	C234.266800,711.134766 234.749924,723.945496 234.135101,736.699768 
	C233.963547,740.258728 231.065186,744.389343 228.244003,746.979065 
	C221.170425,753.472168 202.631363,753.113342 195.304291,747.013977 
	C191.224991,743.618164 188.974182,739.616211 188.987076,734.308777 
	C189.011322,724.333008 189.398331,714.336304 188.888229,704.386658 
	C188.295044,692.816223 194.665588,685.689209 205.707535,684.446106 
	C215.569763,683.335632 225.401749,683.139160 232.411987,692.825806 
M205.004959,706.575073 
	C205.004715,716.052490 205.083817,725.530762 204.971481,735.006897 
	C204.913528,739.895691 208.463333,740.653503 211.860703,740.868896 
	C214.866577,741.059448 217.952774,740.125793 217.984802,736.052063 
	C218.076096,724.437012 218.243576,712.820374 218.126526,701.206909 
	C218.073471,695.943542 216.434219,694.880005 210.825790,694.976318 
	C206.320938,695.053772 204.565887,697.281494 204.984818,701.614197 
	C205.112244,702.932068 205.004791,704.272644 205.004959,706.575073 
z"/>
<path fill="#F9F9F9" opacity="1.000000" stroke="none" 
	d="
M598.267212,723.033264 
	C598.274963,726.848022 598.284790,730.174011 598.290100,733.500061 
	C598.304810,742.704468 595.068359,747.486816 586.044128,750.093201 
	C576.023132,752.987549 566.069519,752.948853 558.002502,745.226746 
	C555.785156,743.104004 554.243469,739.217468 554.165833,736.096191 
	C553.781128,720.629517 554.103333,705.146667 553.909973,689.672852 
	C553.862488,685.873779 555.117615,684.874756 558.777466,684.909424 
	C569.415771,685.010376 569.470093,684.862366 569.526978,695.591309 
	C569.593994,708.233337 569.525208,720.875977 569.580261,733.518127 
	C569.605103,739.232422 571.027161,740.868042 575.734375,740.989075 
	C580.632568,741.115051 582.469360,739.156738 582.492615,733.441772 
	C582.550659,719.146729 582.642212,704.850037 582.472961,690.556946 
	C582.421814,686.242554 583.841980,684.771851 588.250916,684.892517 
	C598.131775,685.162964 598.120789,684.948669 598.142456,694.591187 
	C598.163391,703.909058 598.223999,713.226746 598.267212,723.033264 
z"/>
<path fill="#FBFBFB" opacity="1.000000" stroke="none" 
	d="
M825.909058,741.465942 
	C820.655396,750.380432 812.153137,752.230713 803.410278,751.584839 
	C797.942322,751.180847 792.599792,748.405396 787.338196,746.344055 
	C785.984131,745.813599 784.498840,744.097778 784.200623,742.687988 
	C783.414429,738.971863 783.247192,735.124817 782.833496,731.329895 
	C786.872925,730.946655 790.912720,730.350647 794.951172,730.360107 
	C795.756165,730.361938 797.159058,732.639526 797.242126,733.934753 
	C797.471313,737.509705 798.733093,740.423401 802.366943,740.767151 
	C804.741211,740.991821 808.934082,740.185120 809.375488,738.861267 
	C810.294739,736.104004 810.330383,731.959045 808.786682,729.728699 
	C806.442871,726.342285 802.483337,724.053650 799.142578,721.383118 
	C795.136780,718.180908 790.562317,715.530945 787.111755,711.824646 
	C778.356628,702.420837 782.189392,689.224304 794.448364,685.498596 
	C801.963989,683.214478 809.473755,683.280518 816.898438,685.990234 
	C822.976440,688.208557 826.068237,692.821411 826.945068,698.994324 
	C827.390564,702.130798 826.164856,704.187988 822.540833,704.022705 
	C820.545715,703.931641 818.528870,703.854980 816.547058,704.041260 
	C813.333191,704.343323 811.855103,703.149597 811.066406,699.874023 
	C810.628601,698.055786 808.584961,695.625122 806.939209,695.337952 
	C804.641479,694.937012 801.101746,695.529480 799.841309,697.099792 
	C798.675110,698.552612 798.856689,702.636841 800.125793,704.177063 
	C802.890869,707.532593 806.646851,710.108948 810.147095,712.810364 
	C813.292542,715.237915 816.767822,717.243958 819.867371,719.723694 
	C826.693481,725.184814 828.759094,732.697449 825.909058,741.465942 
z"/>
<path fill="#FBFBFB" opacity="1.000000" stroke="none" 
	d="
M845.739258,731.410156 
	C846.981506,734.517883 847.268005,738.072449 849.193115,739.784363 
	C851.629883,741.951233 855.688782,742.178772 858.059387,739.078247 
	C860.539307,735.834839 859.997192,731.884644 857.315125,729.012878 
	C854.757751,726.274597 851.434570,724.249023 848.434875,721.927063 
	C845.429504,719.600708 842.333923,717.384705 839.408020,714.963013 
	C832.077271,708.895569 830.140259,703.056702 832.521790,695.392761 
	C835.061768,687.219299 841.862793,684.828735 849.046326,684.210144 
	C854.341248,683.754211 859.868713,684.893494 865.172913,685.932800 
	C871.750854,687.221619 874.398682,692.419861 875.592102,698.374268 
	C876.275574,701.784302 875.271423,704.345581 870.962646,704.031738 
	C868.974915,703.886841 866.957275,703.876953 864.971924,704.037231 
	C861.894714,704.285767 860.662231,702.892517 859.852600,699.972900 
	C859.336914,698.112854 857.526611,695.474243 856.026672,695.281067 
	C853.535156,694.960144 850.127319,695.606506 848.454468,697.233032 
	C847.336182,698.320312 847.625122,702.673035 848.909119,704.057739 
	C852.204224,707.611206 856.256653,710.539429 860.278748,713.323975 
	C866.553345,717.667847 873.025635,721.653503 875.311890,729.681274 
	C877.612244,737.758545 873.905518,746.390137 866.120483,749.432007 
	C857.298950,752.878784 848.291260,752.609436 839.625488,748.825928 
	C833.479553,746.142639 831.139832,740.662048 831.151794,734.319092 
	C831.154480,732.904236 833.072693,730.363770 834.234863,730.288635 
	C837.961914,730.047668 841.747986,730.719238 845.739258,731.410156 
z"/>
<path fill="#FBFBFB" opacity="1.000000" stroke="none" 
	d="
M615.096680,685.887390 
	C622.419678,683.209717 629.490234,683.491333 636.522949,685.124023 
	C643.036316,686.636230 647.596680,692.102905 648.415405,698.774353 
	C648.823303,702.097717 648.173767,704.399597 644.060120,704.036499 
	C642.078369,703.861572 640.048157,703.826660 638.075928,704.048584 
	C635.155212,704.377258 633.629272,703.201599 633.433838,700.338257 
	C633.203735,696.968018 631.418701,694.829529 628.111511,695.139648 
	C625.729126,695.363037 621.795959,696.392883 621.496704,697.724365 
	C620.944824,700.179565 621.699097,704.010681 623.435852,705.681641 
	C627.562256,709.651794 632.924500,712.322937 637.139465,716.219727 
	C641.178589,719.954285 645.853333,724.029114 647.680725,728.914795 
	C651.515381,739.167603 645.810181,748.762573 634.956482,750.585327 
	C628.655701,751.643433 621.736755,751.114624 615.466492,749.680237 
	C609.015320,748.204407 604.139709,743.028259 604.527527,734.614624 
	C604.601074,733.020630 606.757751,730.954102 608.447815,730.165283 
	C610.088257,729.399658 612.365173,730.019165 614.362000,729.990601 
	C617.671753,729.943237 619.863831,731.155701 619.723633,734.844543 
	C619.594543,738.242615 621.429260,740.511963 624.470154,740.728760 
	C626.846558,740.898071 630.531067,740.270630 631.470459,738.701660 
	C632.708069,736.634521 632.939087,732.483948 631.619263,730.682495 
	C629.075134,727.209839 625.207214,724.672607 621.763123,721.903137 
	C617.903687,718.799622 613.820190,715.973083 609.985352,712.841003 
	C601.566406,705.964844 603.594910,688.998108 615.096680,685.887390 
z"/>
<path fill="#FCFCFC" opacity="1.000000" stroke="none" 
	d="
M772.948730,714.411987 
	C772.998108,722.003174 772.998108,722.003418 765.739868,722.004395 
	C761.760803,722.004944 757.781799,722.004517 753.468262,722.004517 
	C753.468262,728.003357 753.468262,733.714539 753.468262,739.994629 
	C760.133423,739.994629 766.579407,740.134399 773.015320,739.939758 
	C776.605164,739.831299 778.085327,740.970154 778.109009,744.766235 
	C778.132385,748.515869 777.365967,750.943909 773.114929,750.947754 
	C762.474426,750.957458 751.833862,750.985168 741.193359,751.001160 
	C738.110535,751.005737 736.652588,749.460205 736.652039,746.373779 
	C736.648804,727.232544 736.627869,708.091370 736.585144,688.950134 
	C736.578613,686.008728 737.845520,684.901794 740.861755,684.940430 
	C751.688843,685.079407 762.520691,685.112244 773.346558,684.933594 
	C777.314209,684.868103 778.010681,686.796936 778.081604,690.163269 
	C778.152771,693.539307 777.421082,695.692261 773.562683,695.666138 
	C766.935059,695.621277 760.306885,695.653748 753.351562,695.653748 
	C753.351562,700.776245 753.351562,705.492493 753.351562,710.830566 
	C757.962769,710.830566 762.417908,710.500977 766.786499,710.972351 
	C768.907898,711.201233 770.867493,712.929321 772.948730,714.411987 
z"/>
<path fill="#FBFBFB" opacity="1.000000" stroke="none" 
	d="
M329.006165,733.853699 
	C328.158417,738.988525 330.111816,740.458801 334.716614,740.084717 
	C339.680267,739.681519 344.705933,740.112793 349.697083,739.950439 
	C352.872803,739.847168 354.697937,740.460693 354.613342,744.273132 
	C354.531342,747.968811 354.277954,750.972534 349.573364,750.970337 
	C342.087463,750.966797 334.601532,751.010742 327.115692,750.996948 
	C323.962952,750.991150 320.808655,750.796387 317.658325,750.856812 
	C314.276215,750.921692 312.942780,749.412903 312.957916,746.036194 
	C313.040924,727.549927 313.031097,709.062988 312.993103,690.576477 
	C312.984589,686.432922 314.546112,684.750488 318.994263,684.892029 
	C329.143372,685.215027 339.314484,685.171387 349.466980,684.906555 
	C353.542725,684.800293 354.649078,686.317810 354.607422,690.119812 
	C354.564056,694.079224 353.297485,695.899597 349.071838,695.740723 
	C342.608032,695.497742 336.128357,695.677002 329.331299,695.677002 
	C329.331299,700.578613 329.331299,705.329041 329.331299,710.822632 
	C333.657867,710.822632 338.082550,710.902100 342.502991,710.798767 
	C346.425323,710.707214 349.277985,711.221863 349.245300,716.355591 
	C349.214569,721.175781 347.064880,722.335388 342.772461,722.065186 
	C338.463776,721.793945 334.124725,722.005493 329.006195,722.005493 
	C329.006195,725.887451 329.006195,729.631226 329.006165,733.853699 
z"/>
<path fill="#FDFDFD" opacity="1.000000" stroke="none" 
	d="
M655.662964,699.014954 
	C655.662964,697.684753 655.662964,696.852295 655.662964,696.019897 
	C655.663147,683.930603 656.270569,683.471497 668.381226,684.956787 
	C672.049622,685.406616 671.895813,688.061035 671.950317,690.451843 
	C672.094421,696.774963 672.000549,703.103455 672.000732,709.429810 
	C672.001038,721.416626 671.850586,733.406372 672.089905,745.388428 
	C672.164490,749.124451 670.669678,750.358582 667.309143,750.755249 
	C656.657288,752.012512 655.757202,751.255981 655.743835,740.439270 
	C655.727051,726.797119 655.690796,713.154907 655.662964,699.014954 
z"/> -->
</svg>